<svg width="45" height="45" viewBox="0 0 45 45" fill="none" xmlns="http://www.w3.org/2000/svg">
<path opacity="0.6" d="M16.873 17.0799V15.8669C16.873 13.0532 19.1365 10.2896 21.9502 10.027C22.732 9.95016 23.5212 10.0379 24.267 10.2845C25.0129 10.5311 25.6988 10.9312 26.2808 11.4589C26.8627 11.9866 27.3276 12.6303 27.6457 13.3486C27.9639 14.0669 28.1281 14.8438 28.1278 15.6293V17.3551" stroke="#B18233" stroke-width="2.5" stroke-miterlimit="10" stroke-linecap="round" stroke-linejoin="round"/>
<path d="M18.7484 35.0001H26.2516C31.2787 35.0001 32.1791 32.9867 32.4417 30.5357L33.3796 23.0325C33.7172 19.9812 32.8419 17.4927 27.5021 17.4927H17.4979C12.1581 17.4927 11.2828 19.9812 11.6204 23.0325L12.5583 30.5357C12.8209 32.9867 13.7213 35.0001 18.7484 35.0001Z" stroke="#425944" stroke-width="1.5" stroke-miterlimit="10" stroke-linecap="round" stroke-linejoin="round"/>
<path opacity="0.6" d="M26.871 22.4947H26.8823M18.1173 22.4947H18.1273" stroke="#B18233" stroke-width="3.5" stroke-linecap="round" stroke-linejoin="round"/>
<rect x="0.499985" y="0.500008" width="44" height="44" rx="22" stroke="#425944"/>
</svg>
