<svg width="217" height="32" viewBox="0 0 217 32" fill="none" xmlns="http://www.w3.org/2000/svg">
<path d="M1 12.0173C1 5.10588 7.66246 2.7915 10.7507 1.9355H13.5411C13.5411 1.9355 12.1616 2.03061 13.7606 5.01077C16.9899 11.0979 19.9371 17.4307 20.5955 18.8891V5.07418C20.5955 1.90379 19.1846 1.90379 19.1846 1.90379H22.3826C22.3826 1.90379 20.9874 1.9355 20.9874 5.04247V22.7887C20.9874 22.7887 23.6837 30.6195 31.8903 30.6195C40.0969 30.6195 41.2334 26.2761 47.7548 26.2761C49.1243 26.2319 50.4858 26.503 51.7366 27.0687L51.3604 28.8124C49.927 28.2381 48.3949 27.9579 46.8534 27.9881C41.4294 27.9881 39.799 31 31.8668 31C24.6321 31 21.779 26.4029 19.4589 21.901L11.0956 5.01077C10.7466 4.32534 10.3148 3.68637 9.81012 3.10854C9.60827 3.73233 9.51285 4.38631 9.52795 5.04247V20.9816C9.52795 24.152 10.9702 24.152 10.9702 24.152H7.74084C7.74084 24.152 9.15172 24.152 9.15172 20.9816V2.63298C6.26726 3.77432 1.97194 6.24722 1.97194 10.5589C1.97194 13.9116 3.97851 16.1626 7.67814 16.1626L7.3019 18.255C6.4818 18.2687 5.66718 18.1177 4.90522 17.8107C4.14325 17.5037 3.4491 17.0469 2.86296 16.4667C2.27682 15.8866 1.81034 15.1946 1.49056 14.4308C1.17078 13.667 1.00404 12.8467 1 12.0173Z" fill="#FBFBFB" stroke="#FBFBFB" stroke-miterlimit="10"/>
<path d="M34.187 24.12V22.7884C33.8154 23.2625 33.3367 23.6395 32.7912 23.8878C32.2456 24.1361 31.6491 24.2483 31.0517 24.2151C26.6624 24.2151 24.6871 23.2957 24.6871 19.9034C24.6871 16.2257 28.2613 15.0844 32.0864 15.0844H34.2184V12.5243C34.2184 9.54415 32.2118 9.60756 31.4593 9.60756C29.1079 9.60756 28.6689 10.4002 28.6689 14.8308L26.6937 13.6894C26.6937 11.4385 27.6343 9.35393 31.6161 9.35393C34.2184 9.35393 36.8834 9.63926 36.8834 13.3169V21.0447C36.8834 24.0883 38.2942 24.1517 38.2942 24.1517L34.187 24.12ZM34.187 22.5348V15.2429H32.4313C28.1986 15.2429 27.3208 16.8281 27.3208 19.7766C27.3208 22.1544 27.6656 24.0249 31.0204 24.0249C31.6252 24.0569 32.2288 23.941 32.78 23.6872C33.3312 23.4333 33.8139 23.0489 34.187 22.5665V22.5348Z" fill="#FBFBFB" stroke="#FBFBFB" stroke-miterlimit="10"/>
<path d="M44.941 22.8517C45.423 22.8113 45.8869 22.6476 46.2892 22.3761L43.7183 24.2466C42.6523 24.2466 41.0846 23.9613 41.116 21.0763V11.5651C41.116 10.6219 41.116 9.76592 40.1754 9.76592V9.48058C42.3701 9.41717 43.4047 8.43436 43.781 6.94427V9.48058H46.2892V9.76592H43.781V21.0129C43.781 22.4712 44.3453 22.8517 44.941 22.8517Z" fill="#FBFBFB" stroke="#FBFBFB" stroke-miterlimit="10"/>
<path d="M60.2413 24.1197V20.5688C59.8651 22.5979 58.9559 24.2148 56.7298 24.2148C54.1276 24.2148 51.4626 23.9611 51.4626 20.3152V13.3483C51.4626 10.3364 50.0517 10.2413 50.0517 10.2413L54.1276 9.44872V21.0761C54.1276 23.9294 55.946 23.9929 56.7612 23.9929C60.0846 23.9929 60.2413 19.2373 60.2413 16.8595V13.3483C60.2413 10.3364 58.8305 10.2413 58.8305 10.2413L62.9063 9.44872V21.0127C62.9063 24.088 64.3172 24.1197 64.3172 24.1197H60.2413Z" fill="#FBFBFB" stroke="#FBFBFB" stroke-miterlimit="10"/>
<path d="M76.8574 13.8793V12.524C76.8574 9.67064 75.6346 9.60723 74.6 9.60723C71.0885 9.60723 70.9631 14.0378 70.9631 16.6376V21.0127C70.9631 24.0563 72.3739 24.1197 72.3739 24.1197H66.8872C66.8872 24.1197 68.2981 24.0246 68.2981 21.0444V13.3483C68.2981 10.3364 66.8872 10.2413 66.8872 10.2413L70.9631 9.44871V13.0233C71.3706 11.0656 72.3426 9.3219 74.7254 9.3219C76.8887 9.3219 78.8012 9.51212 79.3342 11.6997L76.8574 13.8793Z" fill="#FBFBFB" stroke="#FBFBFB" stroke-miterlimit="10"/>
<path d="M88.5837 23.5415C89.5539 23.5892 90.5112 23.3011 91.2977 22.7247C92.0843 22.1484 92.6531 21.3182 92.9104 20.3711L93.1926 20.5613C92.5655 22.5586 91.0292 24.239 87.7999 24.239C84.5705 24.239 80.9023 23.5732 80.9023 16.9788C80.9023 10.3844 84.1943 9.37778 87.3923 9.37778C91.813 9.37778 93.5374 10.963 93.5374 13.9352C93.5374 17.6128 89.8692 18.5006 87.2669 18.5006C85.5111 18.5006 83.8494 17.9299 83.5673 17.3592C83.5673 21.7423 86.1068 23.5415 88.5837 23.5415ZM83.5673 17.0739C84.0375 17.9299 85.6365 18.2469 86.8906 18.2469C89.2421 18.2469 90.8725 16.7251 90.8725 13.745C90.8725 12.0726 90.747 9.5363 87.3609 9.5363C85.5425 9.54422 83.5673 10.0673 83.5673 17.0818V17.0739Z" fill="#FBFBFB" stroke="#FBFBFB" stroke-miterlimit="10"/>
<path d="M88.3016 3.42517C88.3476 4.19555 88.1202 4.95724 87.6605 5.57327C87.2007 6.1893 86.5387 6.61924 85.7934 6.78578L85.668 6.56385C85.668 6.56385 87.0789 6.18341 87.0789 4.97866C86.9645 4.9958 86.8483 4.9958 86.734 4.97866C86.5063 5.02541 86.2712 5.0204 86.0457 4.964C85.8201 4.9076 85.6098 4.80122 85.4299 4.65254C85.2501 4.50387 85.1051 4.31663 85.0056 4.10436C84.906 3.89209 84.8544 3.6601 84.8544 3.42517C84.8544 3.19025 84.906 2.95826 85.0056 2.74599C85.1051 2.53372 85.2501 2.34647 85.4299 2.1978C85.6098 2.04913 85.8201 1.94274 86.0457 1.88634C86.2712 1.82994 86.5063 1.82494 86.734 1.87168C86.9398 1.86179 87.1454 1.89496 87.3379 1.96911C87.5305 2.04326 87.7058 2.1568 87.8529 2.30262C88.0001 2.44844 88.1159 2.6234 88.1931 2.81656C88.2703 3.00972 88.3072 3.21691 88.3016 3.42517Z" fill="#FBFBFB"/>
<path d="M109.12 20.3714C109.12 23.7637 105.985 24.3344 102.474 24.3344C97.2377 24.3344 96.4225 22.02 96.203 20.7201L98.5545 19.1349C98.5545 19.1349 98.241 24.0807 102.474 24.0807C104.606 24.0807 106.518 23.8905 106.518 20.3714C106.518 15.806 97.0182 19.2935 97.0182 13.0161C97.0182 9.91705 100.404 9.40979 102.16 9.40979C105.578 9.40979 107.898 10.2658 108.305 12.4137L106.361 13.5234C106.361 10.353 104.417 9.66342 102.097 9.66342C100.686 9.66342 98.8053 10.1707 98.8053 12.5485C98.7426 16.7334 109.12 13.6898 109.12 20.3714Z" fill="#FBFBFB" stroke="#FBFBFB" stroke-miterlimit="10"/>
<path d="M129.476 13.3962V20.1174C129.476 23.1927 130.887 23.2878 130.887 23.2878H125.4C125.4 23.2878 126.811 23.161 126.811 20.1808V1.72918C123.926 2.87052 119.662 5.37512 119.662 9.65514C119.662 13.0157 121.669 15.2667 125.368 15.2667L124.992 17.3592C124.177 17.3675 123.368 17.2135 122.612 16.9057C121.855 16.5979 121.166 16.1425 120.584 15.5655C120.002 14.9885 119.538 14.3011 119.218 13.5427C118.899 12.7843 118.73 11.9696 118.722 11.1452C118.722 4.23378 125.4 1.9194 128.472 1.0634H134.422C137.024 1.0634 141.821 1.41214 141.821 6.99202C141.821 13.206 137.369 13.4279 134.955 13.4279L129.476 13.3962ZM129.476 1.28533V13.1743H134.578C135.958 13.1743 139.124 13.0792 139.124 6.96031C139.124 1.28533 135.425 1.28533 134.014 1.28533H129.476Z" fill="#FBFBFB" stroke="#FBFBFB" stroke-miterlimit="10"/>
<path d="M151.101 23.2242V21.8927C150.729 22.3668 150.251 22.7438 149.705 22.992C149.16 23.2403 148.563 23.3525 147.966 23.3193C143.576 23.3193 141.601 22.3999 141.601 19.0076C141.601 15.33 145.175 14.1886 149 14.1886H151.101V11.6523C151.101 8.67216 149.094 8.73556 148.342 8.73556C145.99 8.73556 145.551 9.52816 145.551 13.9667L143.576 12.8254C143.576 10.5744 144.517 8.48193 148.499 8.48193C151.101 8.48193 153.766 8.76727 153.766 12.4449V20.1807C153.766 23.2242 155.177 23.2876 155.177 23.2876L151.101 23.2242ZM151.101 21.639V14.3471H149.345C145.113 14.3471 144.235 15.9323 144.235 18.8808C144.235 21.2586 144.58 23.1291 147.934 23.1291C148.539 23.1611 149.143 23.0453 149.694 22.7914C150.245 22.5376 150.728 22.1532 151.101 21.6707V21.639Z" fill="#FBFBFB" stroke="#FBFBFB" stroke-miterlimit="10"/>
<path d="M159.041 20.1491V4.89957C159.041 1.88771 157.63 1.7926 157.63 1.7926L161.706 1V20.1174C161.706 23.161 163.117 23.2244 163.117 23.2244H157.63C157.63 23.2244 159.041 23.1293 159.041 20.1491Z" fill="#FBFBFB" stroke="#FBFBFB" stroke-miterlimit="10"/>
<path d="M172.993 22.6536C173.963 22.7023 174.919 22.4145 175.705 21.8379C176.49 21.2613 177.057 20.4304 177.312 19.4832L177.602 19.6734C176.975 21.6707 175.439 23.351 172.209 23.351C168.98 23.351 165.312 22.6853 165.312 16.0909C165.312 9.49646 168.604 8.48193 171.802 8.48193C176.222 8.48193 177.939 10.0671 177.939 13.0473C177.939 16.7249 174.279 17.6126 171.668 17.6126C169.913 17.6126 168.251 17.042 167.969 16.4713C167.977 20.8464 170.516 22.6536 172.993 22.6536ZM167.977 16.186C168.447 17.042 170.046 17.359 171.3 17.359C173.651 17.359 175.282 15.8372 175.282 12.8571C175.282 11.1768 175.156 8.64045 171.77 8.64045C169.952 8.64045 167.977 9.14771 167.977 16.186Z" fill="#FBFBFB" stroke="#FBFBFB" stroke-miterlimit="10"/>
<path d="M185.033 21.9562C185.515 21.9158 185.979 21.7522 186.381 21.4807L183.81 23.3512C182.744 23.3512 181.176 23.0659 181.208 20.1808V10.6697C181.208 9.71854 181.208 8.86254 180.267 8.86254V8.5772C182.462 8.51379 183.496 7.53097 183.873 6.04089V8.5772H186.373V8.86254H183.865V20.1174C183.873 21.5758 184.437 21.9562 185.033 21.9562Z" fill="#FBFBFB" stroke="#FBFBFB" stroke-miterlimit="10"/>
<path d="M193.655 21.9562C194.137 21.9158 194.601 21.7522 195.003 21.4807L192.432 23.3512C191.366 23.3512 189.798 23.0659 189.83 20.1808V10.6697C189.83 9.71854 189.83 8.86254 188.889 8.86254V8.5772C191.084 8.51379 192.118 7.53097 192.495 6.04089V8.5772H194.995V8.86254H192.487V20.1174C192.495 21.5758 193.059 21.9562 193.655 21.9562Z" fill="#FBFBFB" stroke="#FBFBFB" stroke-miterlimit="10"/>
<path d="M204.652 22.6297C205.832 22.4824 206.958 22.0412 207.928 21.3457C209.029 20.5178 210.211 19.8061 211.455 19.2215C212.91 18.6827 214.507 18.6827 215.962 19.2215L215.421 20.8067C215.169 20.4702 214.852 20.1881 214.49 19.9772C214.128 19.7662 213.728 19.6305 213.313 19.5782C212.264 19.5367 211.231 19.8459 210.374 20.458C209.496 21.0207 208.704 21.7182 207.803 22.2492C205.987 23.2581 203.884 23.6051 201.846 23.2321C200.649 23.0736 199.531 22.5416 198.648 21.7103C197.558 20.5769 197.221 18.9203 197.08 17.3431C196.799 15.4434 197.018 13.5025 197.715 11.7156C198.185 10.661 198.965 9.77819 199.949 9.18726C200.43 8.89887 200.963 8.71026 201.517 8.63244C201.807 8.59281 202.097 8.57696 202.387 8.56111C202.677 8.54526 203.123 8.51355 203.492 8.4977C204.348 8.44989 205.207 8.51383 206.047 8.68792C206.695 8.80923 207.31 9.0693 207.851 9.45069C208.392 9.83208 208.846 10.326 209.182 10.8993C209.547 11.6621 209.689 12.5147 209.59 13.3563C209.54 14.1655 209.268 14.9447 208.806 15.6073C208.139 16.3893 207.249 16.9431 206.259 17.1925C204.655 17.6829 202.953 17.7403 201.321 17.3589C200.685 17.261 200.1 16.9514 199.659 16.4791C199.601 17.8893 199.959 19.285 200.686 20.4897C201.053 21.0872 201.549 21.5929 202.136 21.969C202.724 22.3451 203.389 22.5818 204.08 22.6614C204.271 22.6659 204.462 22.6553 204.652 22.6297ZM199.643 16.1859C200.113 17.0419 201.712 17.3589 202.967 17.3589C205.318 17.3589 206.941 15.8371 206.941 12.857C206.941 11.1767 206.815 8.64037 203.437 8.64037C201.618 8.64037 199.643 9.14763 199.643 16.1859Z" fill="#FBFBFB" stroke="#FBFBFB" stroke-miterlimit="10"/>
</svg>
