<svg width="13" height="17" viewBox="0 0 13 17" fill="none" xmlns="http://www.w3.org/2000/svg">
<path d="M5.57143 0C4.55 0 3.71429 0.912012 3.71429 2.02669H1.85714C0.835714 2.02669 0 2.93871 0 4.05339H13C13 2.93871 12.1643 2.02669 11.1429 2.02669H9.28571C9.28571 0.912012 8.45 0 7.42857 0H5.57143ZM1.85714 6.08008V15.8285C1.85714 16.0514 2.00571 16.2135 2.21 16.2135H10.8086C11.0129 16.2135 11.1614 16.0514 11.1614 15.8285V6.08008H9.30429V13.1735C9.30429 13.741 8.89571 14.1869 8.37571 14.1869C7.85571 14.1869 7.44714 13.741 7.44714 13.1735V6.08008H5.59V13.1735C5.59 13.741 5.18143 14.1869 4.66143 14.1869C4.14143 14.1869 3.73286 13.741 3.73286 13.1735V6.08008H1.87571H1.85714Z" fill="#B18233"/>
</svg>
