<svg width="38" height="51" viewBox="0 0 38 51" fill="none" xmlns="http://www.w3.org/2000/svg">
<path d="M27.8813 38.0742C27.8277 38.0964 27.7792 38.1294 27.7389 38.1712C27.6986 38.213 27.6674 38.2627 27.6472 38.3172C27.627 38.3716 27.6184 38.4296 27.6217 38.4876C27.6251 38.5456 27.6404 38.6022 27.6667 38.654C28.6523 40.7499 28.4951 41.7612 28.103 42.2537C27.4406 43.1222 26.208 42.5529 24.9835 43.5802C23.6589 44.6915 24.0289 46.2501 23.1585 46.4701C22.2882 46.6902 21.8153 45.0691 20.0264 44.1373C17.3838 42.7701 15.3679 44.699 13.8014 43.331C12.8439 42.4772 13.4903 41.6043 12.1042 39.1714C11.6209 38.3135 11.0344 37.518 10.3577 36.8026C8.18973 34.5798 6.65049 35.1136 5.35106 33.506C4.12546 32.0043 4.90493 30.8336 4.19429 28.063C3.88432 26.8658 3.39413 25.7227 2.74052 24.6729C2.58891 24.438 2.49907 24.1687 2.47934 23.8898C2.45962 23.6109 2.51064 23.3315 2.62768 23.0776C2.74473 22.8237 2.924 22.6035 3.14887 22.4374C3.37374 22.2712 3.63692 22.1646 3.914 22.1273C4.47724 22.048 5.02468 21.8814 5.53658 21.6335C6.2657 21.1625 7.08707 20.8528 7.94563 20.7251C8.68845 20.7141 9.4308 20.7684 10.1641 20.8875C11.0565 21.019 11.9612 21.0454 12.8597 20.9663C14.1209 20.7591 14.1469 20.2733 14.9837 20.1599C16.5479 19.9414 17.0992 21.5111 19.7765 22.845C22.0257 23.9587 22.5239 23.2981 24.098 24.4195C25.6721 25.541 25.2652 26.2438 26.9238 27.6199C28.8207 29.1899 29.9726 28.8027 30.8926 30.0278C31.4485 30.7673 31.9384 32.1231 31.2304 34.6591C31.2064 34.748 31.1548 34.8269 31.0829 34.8844L29.4173 36.1765C29.3567 36.2249 29.3103 36.2886 29.2829 36.3611C29.2554 36.4335 29.2479 36.512 29.2612 36.5883C29.2744 36.6647 29.3079 36.736 29.3581 36.795C29.4084 36.854 29.4735 36.8983 29.5468 36.9235C29.7648 36.9971 29.9678 37.1094 30.146 37.2549C30.3217 37.3705 30.4676 37.526 30.5717 37.7087C30.6758 37.8914 30.7352 38.0962 30.745 38.3063C30.7344 38.342 30.7259 38.3783 30.7195 38.415C30.7969 39.1177 29.3649 39.6981 28.9327 39.211C28.4418 38.6564 28.2564 37.8942 27.8843 38.0322L27.8813 38.0742Z" fill="#FBFBFB" stroke="#425944" stroke-width="0.767482" stroke-miterlimit="10"/>
<path d="M6.77459 31.6115L13.8966 30.0363C13.9921 30.0053 14.0803 29.9551 14.1556 29.8888C14.2596 29.8124 14.341 29.7094 14.3915 29.5907C14.4419 29.472 14.4595 29.3419 14.4424 29.2141C14.4253 29.0862 14.3741 28.9654 14.2942 28.8641C14.2143 28.7628 14.1087 28.6849 13.9883 28.6386L5.75691 25.1137C5.63616 25.0578 5.50216 25.0367 5.37007 25.053C5.23798 25.0692 5.11307 25.1221 5.00946 25.2056C4.90585 25.2891 4.82768 25.4 4.78379 25.5256C4.73991 25.6513 4.73205 25.7867 4.76112 25.9166L5.88495 31.0419C5.92908 31.2345 6.04701 31.402 6.21337 31.5085C6.37973 31.615 6.58125 31.652 6.77459 31.6115Z" fill="#B18233"/>
<path d="M6.74736 23.8766C10.1913 24.7721 13.4583 26.2458 16.4089 28.2349C16.6697 28.4093 16.874 28.5553 16.9472 28.601C16.8941 27.4638 16.6374 26.3454 16.1894 25.2989C15.7171 24.1873 15.022 23.1843 14.147 22.3518L10.7741 22.336C10.1501 22.2903 9.52334 22.3006 8.90124 22.3669C7.50894 22.521 5.72615 23.0053 5.71911 23.4062C5.71373 23.6448 6.3284 23.7789 6.74736 23.8766Z" fill="#425944"/>
<path d="M22.7187 32.3431C22.0904 32.1024 20.1693 31.2929 19.3217 29.6634C19.1944 29.4196 19.0861 29.1664 18.9978 28.906C18.5977 27.6606 18.9169 26.9338 18.8564 26.1071C18.7115 24.2588 16.7648 23.1209 16.931 22.9521C17.0973 22.7834 17.9516 23.7162 19.6429 24.5355C21.1595 25.2726 21.3375 24.9828 21.8379 25.4714C22.1449 25.7742 22.5893 26.3888 22.6929 30.4203C22.7129 31.2229 22.715 31.8878 22.7187 32.3431Z" fill="#B18233"/>
<path d="M24.7072 27.2008C24.498 27.4949 23.4408 31.5553 25.2053 34.0618C25.43 34.4378 25.7444 34.7522 26.1202 34.9771C26.496 35.202 26.9217 35.3304 27.3592 35.3508C27.6742 35.3599 27.9872 35.2986 28.2756 35.1716C28.564 35.0445 28.8204 34.8548 29.0263 34.6163C29.2248 34.3302 29.3603 34.0052 29.4238 33.6628C29.4874 33.3204 29.4776 32.9684 29.395 32.6301C29.1924 31.696 28.6079 31.7801 27.3119 30.332C26.7842 29.8116 26.3303 29.2213 25.9627 28.5778C25.6669 27.9995 25.3193 27.0942 25.053 27.2056C24.9377 27.2511 24.8162 27.0378 24.7072 27.2008Z" fill="#425944"/>
<path d="M14.1039 40.0237C14.3201 40.6986 14.7356 41.2922 15.2958 41.7262C16.3889 42.523 17.2104 41.9338 18.9586 42.4987C20.7067 43.0636 20.8665 43.9817 22.0911 43.9702C23.1425 43.8609 24.1124 43.3541 24.8024 42.5533C26.2269 41.6408 26.5447 40.8879 26.5866 40.4065C26.6923 39.4111 25.7185 38.8828 24.6324 37.1065C24.3055 36.5858 24.0162 36.0424 23.7666 35.4805C23.724 35.3988 23.6628 35.3284 23.5878 35.2749C23.5128 35.2214 23.4262 35.1864 23.3351 35.1727C23.244 35.159 23.151 35.167 23.0636 35.1961C22.9762 35.2252 22.8969 35.2746 22.8322 35.3401C22.07 36.0321 21.1648 36.5478 20.1809 36.8507C18.7078 37.2998 17.9172 36.9159 16.6593 37.4712C15.5594 38.0309 14.6648 38.9244 14.1039 40.0237Z" fill="#B18233"/>
<path d="M8.00611 33.655C8.6138 34.7216 9.83417 34.6318 10.878 35.4365C11.2587 35.7386 11.5726 36.1165 11.7995 36.5463C11.8618 36.6675 11.9487 36.7743 12.0548 36.8599C12.1608 36.9455 12.2836 37.008 12.4152 37.0432C12.5469 37.0785 12.6844 37.0858 12.8191 37.0647C12.9537 37.0436 13.0824 36.9946 13.197 36.9207C13.6067 36.6381 14.04 36.3912 14.4921 36.1828C15.3486 35.7641 16.2738 35.5037 17.2229 35.4141C17.7649 35.4442 18.3086 35.4015 18.8392 35.2871C19.5315 35.0072 20.0998 34.4875 20.4406 33.8231L18.3655 32.0586C17.0793 31.8291 15.7665 31.7884 14.4685 31.9376C12.7463 32.1384 12.6436 32.5131 10.9439 32.6002C9.24428 32.6872 8.05409 32.4167 7.82576 32.937C7.74567 33.1979 7.89325 33.4569 8.00611 33.655Z" fill="#425944"/>
<path d="M24.6691 20.8104C24.7086 20.7995 24.75 20.7969 24.7906 20.8027C24.8312 20.8085 24.8701 20.8227 24.905 20.8444C24.9398 20.866 24.9698 20.8946 24.993 20.9284C25.0163 20.9622 25.0323 21.0004 25.0401 21.0406C25.3989 22.6366 25.9248 23.1323 26.3569 23.237C27.1027 23.4343 27.5433 22.5826 28.6713 22.6248C29.8916 22.6704 30.3608 23.6998 30.9415 23.4453C31.5222 23.1908 31.0833 22.0819 31.677 20.787C32.558 18.8793 34.5182 19.0813 34.7988 17.6395C34.9627 16.7484 34.2239 16.5418 33.9424 14.5844C33.8401 13.8966 33.8224 13.1987 33.8897 12.5066C34.1353 10.3274 35.225 9.95801 35.2528 8.49837C35.2854 7.12981 34.3434 6.81482 33.5389 4.96185C33.1929 4.15994 32.9708 3.31008 32.8803 2.44141C32.863 2.24471 32.7964 2.05556 32.6865 1.8915C32.5766 1.72743 32.4271 1.59377 32.2518 1.50292C32.0765 1.41206 31.8811 1.36695 31.6837 1.37177C31.4863 1.37659 31.2933 1.43118 31.1227 1.53048C30.7742 1.73038 30.3967 1.87472 30.0038 1.95831C29.3931 2.01168 28.8009 2.19497 28.2668 2.49588C27.8478 2.81164 27.4574 3.16367 27.1001 3.54788C26.6594 4.00797 26.1664 4.41483 25.6311 4.76014C24.838 5.19116 24.613 4.93156 24.0972 5.23096C23.1302 5.7871 23.5032 6.90131 22.5883 8.8055C21.8168 10.4013 21.2526 10.2488 20.8609 11.5564C20.4692 12.864 21.0007 13.0796 20.6722 14.5657C20.2948 16.2633 19.4847 16.5467 19.5026 17.6285C19.5132 18.2818 19.8276 19.2501 21.3215 20.3575C21.3734 20.3967 21.4364 20.4183 21.5014 20.4192L22.9902 20.4178C23.0449 20.4186 23.0984 20.434 23.1451 20.4625C23.1918 20.491 23.23 20.5315 23.2557 20.5798C23.2814 20.6281 23.2937 20.6824 23.2912 20.7371C23.2887 20.7917 23.2716 20.8447 23.2417 20.8905C23.152 21.026 23.0875 21.1766 23.0512 21.335C23.0033 21.4756 22.9893 21.6255 23.0105 21.7725C23.0316 21.9195 23.0872 22.0595 23.1728 22.1809C23.1942 22.1962 23.2147 22.2128 23.2342 22.2304C23.4955 22.6558 24.5456 22.3588 24.5755 21.8999C24.6089 21.3779 24.3819 20.8725 24.6492 20.7882L24.6691 20.8104Z" fill="#FBFBFB" stroke="#425944" stroke-miterlimit="10"/>
<path d="M33.6378 8.05914L28.9836 10.2675C28.9169 10.2915 28.846 10.3017 28.7752 10.2974C28.6842 10.2999 28.5941 10.2778 28.5145 10.2334C28.435 10.1891 28.3688 10.1242 28.3229 10.0455C28.277 9.96678 28.2532 9.87718 28.2539 9.78609C28.2545 9.695 28.2797 9.60577 28.3267 9.52774L31.3891 3.99473C31.4322 3.91119 31.4978 3.84137 31.5785 3.79318C31.6592 3.74498 31.7517 3.72033 31.8457 3.722C31.9397 3.72368 32.0313 3.75161 32.1103 3.80266C32.1892 3.8537 32.2523 3.92581 32.2923 4.01082L33.887 7.35596C33.9458 7.48245 33.9527 7.62699 33.9061 7.75848C33.8595 7.88998 33.7631 7.99793 33.6378 8.05914Z" fill="#B18233"/>
<path d="M30.3007 3.73403C28.7683 5.72599 27.5852 7.96366 26.8019 10.3517C26.7321 10.5619 26.6814 10.7318 26.6605 10.7891C26.1972 10.132 25.8556 9.39705 25.6519 8.61927C25.4335 7.79474 25.3864 6.9342 25.5135 6.09076L27.3875 4.62008C27.7156 4.32418 28.0696 4.05831 28.4453 3.82565C29.2885 3.30817 30.4925 2.80553 30.6702 3.02606C30.7765 3.15675 30.4919 3.49798 30.3007 3.73403Z" fill="#425944"/>
<path d="M25.0639 15.3771C25.3099 14.9705 26.0303 13.6866 25.7968 12.4105C25.7621 12.2194 25.7128 12.0313 25.6492 11.8478C25.3325 10.9799 24.8395 10.713 24.515 10.2258C23.7947 9.13229 24.3871 7.65403 24.2213 7.63199C24.0554 7.60996 23.9833 8.50039 23.3953 9.69023C22.869 10.7586 22.6442 10.6741 22.5769 11.1634C22.5369 11.4653 22.5555 12.0007 24.2449 14.2937C24.5816 14.7499 24.8687 15.1216 25.0639 15.3771Z" fill="#B18233"/>
<path d="M21.7264 13.3714C21.9705 13.4448 24.3198 15.2508 24.4222 17.4132C24.4598 17.7203 24.4208 18.0318 24.3087 18.3201C24.1966 18.6084 24.0149 18.8645 23.7798 19.0655C23.608 19.2071 23.4069 19.3086 23.1911 19.3627C22.9752 19.4169 22.75 19.4222 22.5318 19.3785C22.2971 19.3049 22.0807 19.1824 21.8969 19.019C21.713 18.8557 21.566 18.6551 21.4654 18.4307C21.1735 17.822 21.5359 17.6156 21.6309 16.2464C21.6997 15.7275 21.697 15.2016 21.6231 14.6834C21.5374 14.2328 21.3389 13.5773 21.5356 13.524C21.6196 13.4994 21.595 13.3278 21.7264 13.3714Z" fill="#425944"/>
<path d="M33.1968 15.9262C33.3687 16.3963 33.3942 16.9074 33.2699 17.3922C33.0057 18.3103 32.2923 18.3378 31.5623 19.4104C30.8323 20.483 31.1411 21.0642 30.4532 21.5886C29.8196 21.9833 29.0591 22.121 28.3272 21.9735C27.1375 22.0821 26.6339 21.8 26.4019 21.5497C25.9116 21.0405 26.2256 20.3238 26.0614 18.8626C26.018 18.4305 25.9439 18.0021 25.8395 17.5806C25.8278 17.5166 25.8315 17.4508 25.8501 17.3885C25.8687 17.3261 25.9018 17.2691 25.9467 17.222C25.9916 17.1749 26.0469 17.139 26.1083 17.1174C26.1696 17.0957 26.2352 17.0889 26.2997 17.0974C27.0246 17.1529 27.7529 17.0482 28.4328 16.7906C29.4489 16.4026 29.7234 15.846 30.6655 15.6104C31.5214 15.4458 32.4075 15.5564 33.1968 15.9262Z" fill="#B18233"/>
<path d="M33.8368 9.73215C33.9602 10.5903 33.2408 11.0691 33.0075 11.9702C32.9261 12.3037 32.9149 12.6504 32.9746 12.9885C32.9924 13.0831 32.9902 13.1803 32.9682 13.274C32.9461 13.3677 32.9047 13.4557 32.8466 13.5325C32.7885 13.6092 32.715 13.6729 32.6307 13.7195C32.5465 13.766 32.4535 13.7945 32.3576 13.8029C32.0066 13.8229 31.658 13.873 31.3156 13.9528C30.6565 14.0905 30.0277 14.3462 29.4596 14.7076C29.1704 14.9593 28.8488 15.1711 28.5033 15.3373C27.996 15.4812 27.4538 15.4378 26.9758 15.215L27.3682 13.3317C27.986 12.6463 28.7004 12.0546 29.4889 11.5753C30.5363 10.9408 30.756 11.1053 31.7414 10.4172C32.7269 9.72909 33.2734 9.06242 33.6262 9.25359C33.7839 9.36438 33.8139 9.57278 33.8368 9.73215Z" fill="#425944"/>
</svg>
